<svg width="56" height="56" viewBox="0 0 56 56" fill="none" xmlns="http://www.w3.org/2000/svg">
<path d="M11.6667 30.0585C11.6667 29.0493 11.6667 28.5448 11.8883 28.1141C12.11 27.6833 12.5206 27.3901 13.3417 26.8035L26.8375 17.1637C27.3989 16.7627 27.6795 16.5622 28 16.5622C28.3205 16.5622 28.6011 16.7627 29.1625 17.1637L42.6583 26.8035C43.4794 27.3901 43.89 27.6833 44.1117 28.1141C44.3333 28.5448 44.3333 29.0493 44.3333 30.0585V47C44.3333 47.9428 44.3333 48.4142 44.0404 48.7071C43.7475 49 43.2761 49 42.3333 49H13.6667C12.7238 49 12.2524 49 11.9595 48.7071C11.6667 48.4142 11.6667 47.9428 11.6667 47V30.0585Z" fill="#1A659E" fill-opacity="0.5"/>
<path d="M7 29.7199C7 29.9868 7 30.1202 7.0841 30.1614C7.16819 30.2025 7.27352 30.1206 7.48418 29.9567L26.7721 14.955C27.362 14.4962 27.6569 14.2668 28 14.2668C28.3431 14.2668 28.638 14.4962 29.2279 14.955L48.5158 29.9567C48.7265 30.1206 48.8318 30.2025 48.9159 30.1614C49 30.1202 49 29.9868 49 29.7199V26.6448C49 26.1645 49 25.9243 48.8983 25.7164C48.7966 25.5085 48.607 25.361 48.2279 25.0661L29.2279 10.2883C28.638 9.82956 28.3431 9.60017 28 9.60017C27.6569 9.60017 27.362 9.82956 26.7721 10.2883L7.77212 25.0661C7.39295 25.361 7.20337 25.5085 7.10168 25.7164C7 25.9243 7 26.1645 7 26.6448V29.7199Z" fill="#1A659E"/>
<path d="M31.8333 35H24.1667C23.0621 35 22.1667 35.8954 22.1667 37V48.85C22.1667 48.9328 22.2338 49 22.3167 49H33.6833C33.7662 49 33.8333 48.9328 33.8333 48.85V37C33.8333 35.8954 32.9379 35 31.8333 35Z" fill="#1A659E"/>
<rect x="37.3333" y="11.6667" width="4.66666" height="9.33333" rx="0.5" fill="#1A659E"/>
</svg>
