<svg width="45" height="45" viewBox="0 0 45 45" fill="none" xmlns="http://www.w3.org/2000/svg">
<path d="M33.7389 14.5002C33.7494 14.7374 33.7547 14.856 33.8216 14.9243C33.8884 14.9926 34.009 15.0005 34.2501 15.0164C38.1591 15.2738 41.25 18.5259 41.25 22.5C41.25 26.6421 37.8921 30 33.75 30H32.375C32.1393 30 32.0214 30 31.9482 29.9268C31.875 29.8536 31.875 29.7357 31.875 29.5V22.75C31.875 20.8644 31.875 19.9216 31.2892 19.3358C30.7034 18.75 29.7606 18.75 27.875 18.75H17.125C15.2394 18.75 14.2966 18.75 13.7108 19.3358C13.125 19.9216 13.125 20.8644 13.125 22.75V29.5C13.125 29.7357 13.125 29.8536 13.0518 29.9268C12.9786 30 12.8607 30 12.625 30H11.25C7.10786 30 3.75 26.6421 3.75 22.5C3.75 18.5259 6.84093 15.2738 10.7499 15.0164C10.991 15.0005 11.1116 14.9926 11.1784 14.9243C11.2453 14.856 11.2506 14.7374 11.2611 14.5002C11.2864 13.9325 11.3547 13.3658 11.4662 12.8052C11.8028 11.1128 12.5243 9.52045 13.5748 8.15143C14.6253 6.78241 15.9766 5.6734 17.5243 4.91018C19.0719 4.14696 20.7744 3.75 22.5 3.75C24.2256 3.75 25.9281 4.14696 27.4757 4.91018C29.0234 5.6734 30.3747 6.78241 31.4252 8.15143C32.4757 9.52045 33.1972 11.1128 33.5338 12.8052C33.6453 13.3658 33.7136 13.9325 33.7389 14.5002Z" fill="#1A659E"/>
<path fill-rule="evenodd" clip-rule="evenodd" d="M15.5858 21.2108C15 21.7966 15 22.7394 15 24.625V35.375C15 37.2606 15 38.2034 15.5858 38.7892C16.1716 39.375 17.1144 39.375 19 39.375H26C27.8856 39.375 28.8284 39.375 29.4142 38.7892C30 38.2034 30 37.2606 30 35.375V24.625C30 22.7394 30 21.7966 29.4142 21.2108C28.8284 20.625 27.8856 20.625 26 20.625H19C17.1144 20.625 16.1716 20.625 15.5858 21.2108ZM21.5625 29C21.0102 29 20.5625 29.4477 20.5625 30C20.5625 30.5523 21.0102 31 21.5625 31H23.4375C23.9898 31 24.4375 30.5523 24.4375 30C24.4375 29.4477 23.9898 29 23.4375 29H21.5625Z" fill="#1A659E" fill-opacity="0.5"/>
</svg>
